# xmcd
#
# Track frame offsets: 
#        150
#        4604
#        26424
#        45136
#        61052
#        79470
#        96667
#        116935
#        132450
#        151418
#
# Disc length: 2266 seconds
#
# Revision: 2
# Processed by: cddbd v1.5.2PL0 Copyright (c) Steve Scherf et al.
# Submitted via: ExactAudioCopy v0.99pb4
#
DISCID=7c08d80a
DTITLE=Vader - The Beast
DYEAR=2004
DGENRE=Death Metal
TTITLE0=Intro
TTITLE1=Out Of The Deep
TTITLE2=Dark Transmission
TTITLE3=Firebringer
TTITLE4=The Sea Came In At Last
TTITLE5=I Shall Prevail
TTITLE6=The Zone
TTITLE7=Insomnia
TTITLE8=Apopheniac
TTITLE9=Choices
EXTD=
EXTT0=
EXTT1=
EXTT2=
EXTT3=
EXTT4=
EXTT5=
EXTT6=
EXTT7=
EXTT8=
EXTT9=
PLAYORDER=
